<?xml version="1.0" encoding="utf-8"?>
<!-- Generator: Adobe Illustrator 21.0.0, SVG Export Plug-In . SVG Version: 6.00 Build 0)  -->
<svg version="1.1" id="Layer_1" xmlns="http://www.w3.org/2000/svg" xmlns:xlink="http://www.w3.org/1999/xlink" x="0px" y="0px"
	 viewBox="0 0 800 800" style="enable-background:new 0 0 800 800;" xml:space="preserve">
<style type="text/css">
	.st0{fill:#FDE219;}
	.st1{fill:#FDCF14;}
	.st2{fill:#FDCD14;}
	.st3{fill:#FDE913;}
	.st4{fill:#FDE516;}
	.st5{fill:#FDE715;}
</style>
<g>
	<g>
		<path class="st0" d="M431.4,145c34.3,5.6,52.4,27.5,60.2,59.7c6.8,28.1,3.8,56.2-0.6,84.1c-5.3,33.4-15.1,65.6-26.6,97.2
			c-1.4,3.9-2.5,8-3.7,12.1c-7.1,16.3-14.2,32.5-21.2,48.9c-3.2,7.5-5.9,15.3-8.8,22.9c-5.9,8.7-11.9,17.4-17.7,26.2
			c-3.1,4.7-6,9.6-9,14.4c-0.1-4.3-0.2-8.6-0.2-13c0-24.5,0.1-49-0.2-73.6c0-3.1-2.7-6.2-4.1-9.3c9-23.3,18.4-46.4,27-69.8
			c12.1-32.7,20.3-66.3,19.8-101.4c-0.2-12.7-3.2-25.4-6-37.9c-1.9-8.7-9.2-12.3-18.8-12.2c-15.6,0.2-30.3,4.1-44.6,9.9
			c-0.5-2.6-1.4-5.1-1.5-7.7c-0.6-14.3-1.1-28.6-1.5-42.9c7.8-2,15.5-4,23.3-6.1C400,145.8,430.6,144.9,431.4,145z"/>
		<path class="st1" d="M430.7,469.9c2.9-7.6,5.6-15.4,8.8-22.9c6.9-16.3,14.1-32.6,21.2-48.9c2.9-1.7,5.9-3.2,8.7-5.2
			c31.6-22.3,57.1-50.5,78.8-82.3c8.8-12.9,22.8-15.9,34.3-8.4c9.1,5.9,10.9,15.3,12,25.2c0.8,8.1,2,16.2,3,24.2
			c0.9,6.7,4.6,9.7,11.3,8.1c17.5-4.2,35-8.4,52.4-12.8c8.6-2.1,17.2-4.6,25.8-6.8c15.7-3.9,18.8,44.2,11.8,46.4
			c-23.7,7.5-47.7,13.9-71.8,20.3c-26.7,7.1-50,2.2-67.6-20.7c-0.9-1.2-1.6-2.4-3.1-4.5C520.4,421,478.5,449.8,430.7,469.9z"/>
		<path class="st2" d="M152,572.6c4.2-16.1,10-31.6,20.4-44.9c21.1-27,48.3-45.8,80.5-56c38.4-12.3,77.7-22.1,116.5-33.1
			c7.4-2.1,14.5-5.2,21.8-7.8c-0.1,1.2,0.2,2.6-0.2,3.5c-9.5,19-18.9,38-28.8,56.8c-2,3.9-6,6.7-9.1,10c0.5-1.3,1-2.5,1.9-4.6
			c-12.5,2.7-24.1,5.3-35.7,7.7c-28.3,6-55.9,13.7-80.5,29.8c-18.5,12.1-34.2,26.3-38.6,49.6c-2.1,11.1,4.1,23.6,15.3,26.4
			c5.4,1.3,11.4,0.3,17.1,0.3c-11.1,2.9-22,7.3-33.3,8.3c-17.1,1.5-32.4-5-45.5-16C153.1,601.9,152,582.1,152,572.6z"/>
		<path class="st3" d="M153.6,602.4c13.2,11.1,28.5,17.5,45.5,16c11.3-1,22.2-5.4,33.3-8.3c22.9-5.1,41.4-18.2,58.9-32.8
			c0.7,3.3,2,6.6,2,10c0.2,13.1-0.1,26.2,0.2,39.3c0.1,2.6,1.7,5.2,2.7,7.7c-18.4,12.9-39,20.1-60.7,24.7
			c-1.1,0.2-31.8-0.8-34.3-1.6C174.6,648.5,158.5,630.3,153.6,602.4z"/>
		<path class="st4" d="M296.3,634.4c-0.9-2.6-2.6-5.1-2.7-7.7c-0.3-13.1,0-26.2-0.2-39.3c-0.1-3.3-1.3-6.6-2-10
			c12-13.5,24.5-26.7,35.9-40.6c8.5-10.4,15.8-21.8,23.6-32.7c0.7-1,1.4-2,2.1-3l-0.1,0c3.1-3.3,7.1-6.1,9.1-10
			c9.9-18.8,19.3-37.8,28.8-56.8c0.5-1,0.2-2.4,0.2-3.5c0,0,0.2,0,0.2,0.1c0.7-0.9,1.4-1.7,2-2.6c2-4.5,4.1-8.9,6.1-13.4
			c1.4,3.1,4,6.2,4.1,9.3c0.3,24.5,0.2,49,0.2,73.6c0,4.3,0.1,8.6,0.2,13c-27.3,46.4-59.5,88.7-103.2,121.2
			C299.4,632.8,297.8,633.5,296.3,634.4z"/>
		<path class="st5" d="M374,152.6c0.5,14.3,0.9,28.6,1.5,42.9c0.1,2.6,1,5.1,1.5,7.7c-24.1,11.8-45.5,27.1-61.8,48.9
			c-16.5,22.1-26.4,47-31.9,73.8c-2.7,13.1,0.2,24.8,10,34.9c11.5,11.9,12.2,27.9,3.4,40.2c-4.4,6.2-9.7,7.5-16.8,4.8
			c-27.8-10.5-46.1-35.8-45.5-67.7c0.8-46.9,17.6-88.2,48.7-123.2c24.2-27.3,52.2-49.5,87.3-61.4C371.5,153.1,372.8,152.9,374,152.6
			z"/>
		<path class="st2" d="M393.3,428.1c-0.7,0.9-1.4,1.7-2,2.6C392,429.9,392.6,429,393.3,428.1z"/>
		<path class="st2" d="M350.9,504c0.7-1,1.4-2,2.1-3C352.3,502,351.6,503,350.9,504z"/>
	</g>
</g>
<g>
</g>
<g>
</g>
<g>
</g>
<g>
</g>
<g>
</g>
<g>
</g>
<g>
</g>
<g>
</g>
<g>
</g>
<g>
</g>
<g>
</g>
<g>
</g>
<g>
</g>
<g>
</g>
<g>
</g>
</svg>
